<svg width="290" height="49" fill="none" xmlns="http://www.w3.org/2000/svg"><path d="M10.107 0L0 47.484h41.524L51.631 0H10.107z" fill="url(#paint0_linear_54:620)"/><path fill-rule="evenodd" clip-rule="evenodd" d="M83.92 47.484L87.833 29.1h-.046L83.92 47.484zm5.747-26.998l2.529-11.871-2.578 11.87h.049z" fill="#fff"/><path fill-rule="evenodd" clip-rule="evenodd" d="M83.92 47.484L87.833 29.1h-.046L83.92 47.484zm5.747-26.998l2.529-11.871-2.578 11.87h.049z" fill="url(#paint1_linear_54:620)"/><path d="M84.327 0l-9.646 45.319L69.81 0H51.63L41.524 47.484h9.7l9.633-45.449 4.884 45.449h18.18L87.786 29.1h19.807l1.832-8.615H89.618l2.578-11.871h35.07l-8.276 38.869h9.7l8.276-38.87h10.368L149.166 0H84.327z" fill="#fff"/><path d="M84.327 0l-9.646 45.319L69.81 0H51.63L41.524 47.484h9.7l9.633-45.449 4.884 45.449h18.18L87.786 29.1h19.807l1.832-8.615H89.618l2.578-11.871h35.07l-8.276 38.869h9.7l8.276-38.87h10.368L149.166 0H84.327z" fill="url(#paint2_linear_54:620)"/><path d="M160.298 0h-7.917l-1.831 8.615h7.917L160.298 0z" fill="#fff"/><path d="M160.298 0h-7.917l-1.831 8.615h7.917L160.298 0z" fill="url(#paint3_linear_54:620)"/><path d="M142.273 47.456l6.963-32.4h7.769l-6.848 32.4h-7.884z" fill="#fff"/><path d="M142.273 47.456l6.963-32.4h7.769l-6.848 32.4h-7.884z" fill="url(#paint4_linear_54:620)"/><path d="M158.001 47.456l6.79-31.94 6.273-.46-.057 2.417c2.455-2.11 5.774-3.165 9.955-3.165 2.341 0 4.278.269 5.813.806 1.535.499 2.685 1.15 3.453 1.956.767.806 1.247 1.9 1.439 3.28.23 1.344.287 2.648.172 3.914-.115 1.228-.364 2.762-.748 4.604l-3.971 18.588h-7.826l3.74-17.725a51.97 51.97 0 00.576-3.97c.115-1.152-.307-2.072-1.266-2.763-.921-.729-2.475-1.093-4.662-1.093-2.532 0-4.354.613-5.467 1.841-1.113 1.228-1.918 3.012-2.417 5.352l-3.856 18.358h-7.941z" fill="#fff"/><path d="M158.001 47.456l6.79-31.94 6.273-.46-.057 2.417c2.455-2.11 5.774-3.165 9.955-3.165 2.341 0 4.278.269 5.813.806 1.535.499 2.685 1.15 3.453 1.956.767.806 1.247 1.9 1.439 3.28.23 1.344.287 2.648.172 3.914-.115 1.228-.364 2.762-.748 4.604l-3.971 18.588h-7.826l3.74-17.725a51.97 51.97 0 00.576-3.97c.115-1.152-.307-2.072-1.266-2.763-.921-.729-2.475-1.093-4.662-1.093-2.532 0-4.354.613-5.467 1.841-1.113 1.228-1.918 3.012-2.417 5.352l-3.856 18.358h-7.941z" fill="url(#paint5_linear_54:620)"/><path d="M207.654 47.974c-8.018 0-12.027-3.913-12.027-11.74 0-1.88.287-4.124.863-6.733 1.074-5.026 2.781-8.805 5.122-11.337 2.378-2.57 5.87-3.856 10.473-3.856 5.794 0 9.362 1.228 10.705 3.683l3.337-15.193h7.884l-9.437 44.313-6.101.633.115-2.82c-2.186 2.033-5.831 3.05-10.934 3.05zm2.993-6.906c2.724 0 4.795-.633 6.215-1.899 1.42-1.304 2.494-3.645 3.223-7.02.345-1.382.518-2.859.518-4.432 0-2.11-.576-3.664-1.727-4.661-1.151-.998-3.05-1.497-5.697-1.497-2.609 0-4.546.73-5.813 2.187-1.266 1.458-2.244 3.74-2.934 6.848a20.136 20.136 0 00-.518 4.432c0 1.956.498 3.453 1.496 4.488 1.036 1.036 2.781 1.554 5.237 1.554z" fill="#fff"/><path d="M207.654 47.974c-8.018 0-12.027-3.913-12.027-11.74 0-1.88.287-4.124.863-6.733 1.074-5.026 2.781-8.805 5.122-11.337 2.378-2.57 5.87-3.856 10.473-3.856 5.794 0 9.362 1.228 10.705 3.683l3.337-15.193h7.884l-9.437 44.313-6.101.633.115-2.82c-2.186 2.033-5.831 3.05-10.934 3.05zm2.993-6.906c2.724 0 4.795-.633 6.215-1.899 1.42-1.304 2.494-3.645 3.223-7.02.345-1.382.518-2.859.518-4.432 0-2.11-.576-3.664-1.727-4.661-1.151-.998-3.05-1.497-5.697-1.497-2.609 0-4.546.73-5.813 2.187-1.266 1.458-2.244 3.74-2.934 6.848a20.136 20.136 0 00-.518 4.432c0 1.956.498 3.453 1.496 4.488 1.036 1.036 2.781 1.554 5.237 1.554z" fill="url(#paint6_linear_54:620)"/><path d="M247.611 48.09c-9.553 0-14.329-4.106-14.329-12.316 0-1.803.23-3.894.69-6.273.998-4.95 2.897-8.709 5.698-11.28 2.8-2.608 6.771-3.913 11.912-3.913 8.556 0 12.834 3.338 12.834 10.014 0 2.57-.461 5.908-1.382 10.013h-22.213v.69c0 4.298 2.57 6.446 7.711 6.446 3.798 0 6.964-.786 9.496-2.36l3.107 5.64c-3.337 2.226-7.845 3.338-13.524 3.338zm3.05-26.991c-2.34 0-4.201.595-5.582 1.784-1.343 1.19-2.378 2.954-3.107 5.294h14.79c.191-.959.287-1.803.287-2.532 0-1.458-.479-2.57-1.438-3.338-.921-.805-2.571-1.208-4.95-1.208z" fill="#fff"/><path d="M247.611 48.09c-9.553 0-14.329-4.106-14.329-12.316 0-1.803.23-3.894.69-6.273.998-4.95 2.897-8.709 5.698-11.28 2.8-2.608 6.771-3.913 11.912-3.913 8.556 0 12.834 3.338 12.834 10.014 0 2.57-.461 5.908-1.382 10.013h-22.213v.69c0 4.298 2.57 6.446 7.711 6.446 3.798 0 6.964-.786 9.496-2.36l3.107 5.64c-3.337 2.226-7.845 3.338-13.524 3.338zm3.05-26.991c-2.34 0-4.201.595-5.582 1.784-1.343 1.19-2.378 2.954-3.107 5.294h14.79c.191-.959.287-1.803.287-2.532 0-1.458-.479-2.57-1.438-3.338-.921-.805-2.571-1.208-4.95-1.208z" fill="url(#paint7_linear_54:620)"/><path d="M266.187 47.456l6.79-31.94 6.273-.46-.115 3.165c1.765-2.378 5.237-3.568 10.416-3.568l-1.611 7.654c-3.376.039-5.793.71-7.251 2.015-1.42 1.304-2.436 3.395-3.05 6.272l-3.568 16.862h-7.884z" fill="#fff"/><path d="M266.187 47.456l6.79-31.94 6.273-.46-.115 3.165c1.765-2.378 5.237-3.568 10.416-3.568l-1.611 7.654c-3.376.039-5.793.71-7.251 2.015-1.42 1.304-2.436 3.395-3.05 6.272l-3.568 16.862h-7.884z" fill="url(#paint8_linear_54:620)"/><defs><linearGradient id="paint0_linear_54:620" x1="3.417" y1="23.725" x2="67.175" y2="32.475" gradientUnits="userSpaceOnUse"><stop stop-color="#6FDCFF" stop-opacity="0"/><stop offset="1" stop-color="#FF248D"/></linearGradient><linearGradient id="paint1_linear_54:620" x1="289.55" y1="24.079" x2="46.029" y2="24.079" gradientUnits="userSpaceOnUse"><stop offset=".166" stop-color="#6FDCFF"/><stop offset=".795" stop-color="#FF008A"/></linearGradient><linearGradient id="paint2_linear_54:620" x1="289.55" y1="24.079" x2="46.029" y2="24.079" gradientUnits="userSpaceOnUse"><stop offset=".166" stop-color="#6FDCFF"/><stop offset=".795" stop-color="#FF008A"/></linearGradient><linearGradient id="paint3_linear_54:620" x1="289.55" y1="24.079" x2="46.029" y2="24.079" gradientUnits="userSpaceOnUse"><stop offset=".166" stop-color="#6FDCFF"/><stop offset=".795" stop-color="#FF008A"/></linearGradient><linearGradient id="paint4_linear_54:620" x1="289.55" y1="24.079" x2="46.029" y2="24.079" gradientUnits="userSpaceOnUse"><stop offset=".166" stop-color="#6FDCFF"/><stop offset=".795" stop-color="#FF008A"/></linearGradient><linearGradient id="paint5_linear_54:620" x1="289.55" y1="24.079" x2="46.029" y2="24.079" gradientUnits="userSpaceOnUse"><stop offset=".166" stop-color="#6FDCFF"/><stop offset=".795" stop-color="#FF008A"/></linearGradient><linearGradient id="paint6_linear_54:620" x1="289.55" y1="24.079" x2="46.029" y2="24.079" gradientUnits="userSpaceOnUse"><stop offset=".166" stop-color="#6FDCFF"/><stop offset=".795" stop-color="#FF008A"/></linearGradient><linearGradient id="paint7_linear_54:620" x1="289.55" y1="24.079" x2="46.029" y2="24.079" gradientUnits="userSpaceOnUse"><stop offset=".166" stop-color="#6FDCFF"/><stop offset=".795" stop-color="#FF008A"/></linearGradient><linearGradient id="paint8_linear_54:620" x1="289.55" y1="24.079" x2="46.029" y2="24.079" gradientUnits="userSpaceOnUse"><stop offset=".166" stop-color="#6FDCFF"/><stop offset=".795" stop-color="#FF008A"/></linearGradient></defs></svg>