<?xml version="1.0" encoding="utf-8"?><svg viewBox="0 0 502.66 502.66" xmlns="http://www.w3.org/2000/svg" xmlns:xlink="http://www.w3.org/1999/xlink"><style>:root>svg{display:none}:root>svg:target{display:block}</style><svg fill="none" viewBox="0 0 36 36" id="Link_icon" xmlns="http://www.w3.org/2000/svg"><path d="M15 25.5h-4.5a7.5 7.5 0 010-15H15a1.5 1.5 0 110 3h-4.5a4.5 4.5 0 100 9H15a1.5 1.5 0 110 3zm10.5 0H21a1.5 1.5 0 110-3h4.5a4.5 4.5 0 100-9H21a1.5 1.5 0 110-3h4.5a7.5 7.5 0 010 15z" fill="#fff"/><path d="M22.5 19.5h-9a1.5 1.5 0 110-3h9a1.5 1.5 0 110 3z" fill="#fff"/></svg><svg viewBox="0 0 502.664 502.664" id="icon" xmlns="http://www.w3.org/2000/svg"><g fill="#010002"><path d="M153.821 358.226L0 274.337v-46.463l153.821-83.414v54.574L46.636 250.523l107.185 53.431v54.272zM180.094 387.584L282.103 115.08h32.227L212.084 387.584h-31.99zM348.843 358.226v-54.272l107.164-52.999-107.164-52.59v-53.927l153.821 83.522v46.183l-153.821 84.083z"/></g></svg></svg>