<svg xmlns="http://www.w3.org/2000/svg"><symbol id="banner" viewBox="0 0 459.754 350.074"><g fill="#766458"><path d="M165.422 70.001l-.203.229c-1.353 1.469-3.022 2.188-4.521 2.217l2.822-4.865c1.813-3.139.144-6.104-2.679-6.104-2.303 0-4.088.92-5.815 3.916l-1.468 2.562-1.227 2.098-.154.177c-2.159 2.506-4.262 4.491-5.586 4.491-.662 0-1.037-.461-.346-1.641l6.422-11.201h2.446l.864-1.44H153.5l2.822-4.893h-2.994l-2.822 4.895h-2.707l-.864 1.44h2.735l-6.019 10.423c-1.267 2.217-.374 4.262 2.044 4.262 1.739 0 3.662-1.309 5.512-3.084-.006 3.816 5.297 4.562 8.539.463h.661c1.785 0 4.606-1.094 6.134-2.907-.199-.405-.716-.865-1.119-1.038zm-6.392.203h-.145c-.979 0-1.756.806-1.756 1.785 0 .373.115.72.289 1.009l-.029.057c-1.411 2.419-4.838 1.958-3.053-1.151l2.274-3.944 1.44-2.447c2.102-3.569 4.98-2.159 3.166.95l-2.186 3.741zM206.877 70.001l-.201.229c-2.16 2.506-4.924 4.491-7.025 4.491-1.844 0-2.938-1.151-1.555-3.569l.287-.52c1.93.807 5.558.432 7.804-3.455l.432-.749c1.612-2.764.058-4.837-2.39-4.837-2.419 0-4.348 1.268-5.615 3.455l-2.906 4.984-.173.199c-2.159 2.504-4.261 4.49-5.586 4.49-.661 0-1.036-.461-.346-1.641l4.319-7.571c1.295-2.274.059-3.916-1.612-3.916-1.296 0-2.679.72-4.175 2.274l4.779-8.32h-2.994l-8.354 14.492-.168.191c-2.159 2.506-4.261 4.491-5.586 4.491-.662 0-1.037-.461-.345-1.641l6.42-11.201h2.447l.864-1.44h-2.476l2.822-4.893h-2.994l-2.822 4.895h-2.706l-.864 1.44h2.735l-6.019 10.423c-1.267 2.217-.373 4.262 2.045 4.262 1.213 0 2.517-.639 3.821-1.627l-.771 1.338h3.022l4.55-7.916c4.606-5.789 6.65-5.039 5.354-2.822l-3.888 6.767c-1.267 2.218-.373 4.263 2.045 4.263 1.781 0 3.757-1.375 5.646-3.217.145 1.864 1.653 3.217 4.055 3.217 3.396 0 6.766-2.649 9.242-5.529-.196-.404-.714-.864-1.118-1.037zm-5.701-4.204c1.729-2.965 4.781-2.477 2.996.634l-.433.749c-1.438 2.447-3.368 2.391-4.491 1.987l1.928-3.37zM316.047 70.001l-.201.229a18.785 18.785 0 0 1-3.601 3.254c.95-2.851.749-7.228 2.593-11.057l-2.246-1.209c-1.238 1.699-3.943 5.615-6.65 8.782v.001l-.2.229c-2.158 2.506-4.261 4.491-5.587 4.491-.661 0-1.035-.461-.344-1.641l6.392-11.201h-2.994l-5.326 9.3c-2.274 2.072-4.03 3.225-4.606 2.965-.748-.315 0-1.438.375-2.072l5.845-10.192H296.5l-4.695 8.124-.197.227c-1.354 1.469-3.022 2.188-4.521 2.217l2.821-4.865c1.813-3.139.146-6.104-2.678-6.104-2.305 0-4.09.92-5.815 3.916l-1.47 2.562-1.227 2.097-.154.178c-2.158 2.506-4.924 4.491-7.024 4.491-1.843 0-2.938-1.151-1.556-3.569l.289-.52c1.929.807 5.558.432 7.803-3.455l.434-.749c1.61-2.764.057-4.837-2.392-4.837-2.419 0-4.349 1.268-5.615 3.455l-2.903 4.984-.174.199c-2.478 2.851-4.606 4.691-6.97 5.699l6.709-11.459h-1.757c0-1.238-1.268-2.879-3.139-2.879-1.611 0-3.857 1.268-5.125 3.455l-2.871 4.957-.008-.004-.201.23c-2.158 2.504-4.262 4.49-5.586 4.49-.662 0-1.035-.461-.346-1.641l2.994-5.241c1.036-1.813.547-2.879-.433-4.06l-1.671-2.017c-.432-.547-.432-1.151.174-1.728l-1.555-1.699c-1.699 1.525-1.844 3.225-.777 4.607l.26.346c-1.324 1.872-3.109 4.404-5.068 6.709l.003.004-.199.229c-1.354 1.467-3.022 2.188-4.521 2.217l2.82-4.866c1.814-3.138.145-6.104-2.678-6.104-2.303 0-4.088.922-5.814 3.916l-1.47 2.562-1.228 2.101-.152.175c-2.477 2.851-4.607 4.691-6.969 5.699l6.709-11.459H226.8c0-1.238-1.267-2.879-3.139-2.879-1.611 0-3.857 1.268-5.125 3.455l-4.203 7.256c-1.268 2.217-.375 4.262 2.043 4.262.836 0 1.844-.375 2.852-1.008l-.835 1.41c-4.031 1.238-6.565 2.879-6.565 5.125 0 2.88 4.405 3.484 6.565-.201l2.274-3.945c2.396-.746 4.743-2.155 7.18-4.481-.021 3.832 5.293 4.585 8.54.479h.661c1.785 0 4.607-1.094 6.134-2.908 1.438-1.67 2.562-3.168 4.95-6.42l.402.49c.374.489.521 1.094.174 1.698l-3.168 5.5c-1.269 2.218-.375 4.263 2.045 4.263 1.519 0 3.177-.998 4.802-2.431-.05 1.392.879 2.431 2.598 2.431.834 0 1.843-.375 2.852-1.009L257 76.966c-4.031 1.238-6.563 2.879-6.563 5.125 0 2.88 4.404 3.483 6.563-.201l2.273-3.944c2.44-.762 4.83-2.215 7.315-4.617.134 1.875 1.646 3.236 4.058 3.236 2.438 0 4.858-1.367 6.946-3.201-.116 3.92 5.267 4.721 8.541.58h.662c.938 0 2.158-.309 3.33-.856-.806 2.081-.063 3.478 1.649 3.478 1.642 0 3.482-1.498 4.922-2.879-.287 1.611.662 2.879 2.563 2.879 2.477 0 5.326-2.648 7.805-5.528l-.002-.001c1.697-1.959 3.195-4.059 4.262-5.469-1.182 3.108-.549 8.694-3.397 8.694-1.008 0-1.409-1.094-1.409-1.094l-1.873.979s.547 2.42 3.282 2.42c.287 0 .548-.029.834-.06.029 0 .06-.028.089-.028 3.051-.402 6.073-2.82 8.319-5.441-.172-.461-.69-.922-1.122-1.037zm-42.983-4.204c1.728-2.965 4.777-2.477 2.992.634l-.432.749c-1.439 2.447-3.369 2.391-4.492 1.987l1.932-3.37zm-57.177 15.606c-.633 1.123-1.641.951-1.641.145 0-.777.721-1.67 2.994-2.562l-1.353 2.417zm1.383-6.68c-.662 0-1.037-.461-.346-1.641l4.176-7.285c1.611-2.793 4.809-2.073 3.34.634l-2.273 3.974c-1.816 2.908-3.63 4.318-4.897 4.318zm18.397-4.519h-.146c-.979 0-1.756.806-1.756 1.785 0 .373.115.72.287 1.009l-.027.057c-1.41 2.419-4.837 1.958-3.053-1.151l2.273-3.944 1.439-2.447c2.104-3.569 4.979-2.159 3.168.95l-2.185 3.741zm18.827 11.199c-.635 1.123-1.643.951-1.643.145 0-.777.721-1.67 2.994-2.562l-1.351 2.417zm1.381-6.68c-.662 0-1.035-.461-.346-1.641l4.176-7.285c1.611-2.793 4.809-2.073 3.34.634l-2.273 3.974c-1.814 2.908-3.631 4.318-4.897 4.318zm29.54-4.519h-.146c-.979 0-1.756.806-1.756 1.785 0 .373.115.72.287 1.009l-.027.057c-1.41 2.419-4.838 1.958-3.053-1.151l2.273-3.944 1.439-2.447c2.103-3.569 4.979-2.159 3.168.95l-2.185 3.741z"/></g><path fill="#766458" d="M101.422 66.823h28.918v1.957h-28.918zM328.422 66.823h28.918v1.957h-28.918z"/><g fill="#81B3D3"><path d="M163.183 0h7.707l-1.209 44.918h-14.525l-1.975-18.545-1.975 18.545h-14.589L135.471 0h7.645l.637 37.152h.828L149.359 0h7.581l4.906 37.152h.765L163.183 0zM195.034 37.152v7.766h-20.896V0h20.896v7.7h-13.251v10.844h10.575v7.7h-10.575v10.908h13.251zM216.373 37.152v7.766H198.09V0h7.646v37.152h10.637zM232.617 28.361l7.708-1.797v13.604c0 2.567-2.166 4.749-4.714 4.749h-11.469c-2.611 0-4.713-2.182-4.713-4.749V4.749c0-2.632 2.103-4.749 4.713-4.749h11.467c2.549 0 4.715 2.117 4.715 4.749v9.112l-7.708 1.796V7.7h-5.543v29.452h5.543l.001-8.791zM261.089 0c2.55 0 4.716 2.117 4.716 4.749v35.42c0 2.567-2.166 4.749-4.716 4.749h-11.468c-2.61 0-4.714-2.182-4.714-4.749V4.749c0-2.631 2.104-4.749 4.714-4.749h11.468zm-2.993 7.7h-5.544v29.452h5.544V7.7zM290.837 0h7.58v44.918h-7.646V22.844l-3.059 11.422h-7.453l-2.994-11.422v22.074h-7.646V0h7.581l6.816 21.688L290.837 0zM323.134 37.152v7.766h-20.896V0h20.896v7.7h-13.252v10.844h10.575v7.7h-10.575v10.908h13.252z"/></g><g fill="#FFF"><path d="M44.467 157.61c-3.572-2.979-8.139-4.963-12.902-4.963-3.572 0-8.338 2.084-8.338 6.253 0 4.368 5.261 6.055 8.636 7.146l4.964 1.489c10.422 3.077 18.461 8.337 18.461 20.447 0 7.445-1.787 15.088-7.742 20.149-5.855 4.964-13.697 7.048-21.24 7.048-9.43 0-18.661-3.177-26.305-8.537l8.338-15.683c4.865 4.269 10.621 7.742 17.271 7.742 4.566 0 9.43-2.283 9.43-7.545 0-5.459-7.643-7.345-11.812-8.535-12.208-3.476-20.249-6.649-20.249-21.143 0-15.188 10.818-25.112 25.807-25.112 7.543 0 16.775 2.382 23.426 6.154l-7.745 15.09zM91.832 154.831v12.506h21.937v16.479H91.832v12.899h23.127v16.479H72.377v-74.84h42.582v16.477H91.832zM129.418 138.354h27.594c20.844 0 38.016 16.377 38.016 37.419 0 21.041-17.271 37.42-38.016 37.42h-27.594v-74.839zm19.455 58.364h4.367c11.612 0 21.539-6.352 21.539-20.942 0-13.4-8.834-20.943-21.341-20.943h-4.565v41.885zM286.874 174.385c0 24.219-17.371 41.292-41.394 41.292-24.02 0-41.391-17.071-41.391-41.292 0-22.632 19.852-38.513 41.391-38.513 21.54 0 41.394 15.881 41.394 38.513zm-62.534.099c0 12.905 9.529 22.333 21.141 22.333 11.613 0 21.144-9.43 21.144-22.333 0-10.323-9.526-19.752-21.144-19.752-11.613 0-21.141 9.43-21.141 19.752zM297.239 138.354h19.454l35.636 45.757h.196v-45.757h19.453v74.839h-19.453l-35.635-45.856h-.197v45.856h-19.454v-74.839zM407.346 200.191l-5.16 13.002H381.54l28.785-74.839h21.242l28.188 74.839H439.01l-4.862-13.002h-26.802zm13.6-38.71h-.199l-8.039 23.824h16.178l-7.94-23.824z"/></g><g fill="#FFF"><path d="M108.081 287.741c7.658-2.589 8.242-12.181.693-12.181-2.079 0-4.559 1.459-6.272 4.448L92.29 297.66a14.673 14.673 0 0 1-1.458 2.15c-2.626-3.609-1.86-9.006 1.823-11.377l-1.532-1.935c-7.95 5.069-5.616 19.692 7.659 19.692 11.342.003 16.593-13.598 9.299-18.449zm-9.372 15.534c-2.261 0-4.048-.51-5.47-1.312.656-.767 1.312-1.715 1.896-2.698l6.381-11.051 1.021.108c8.9 1.864 5.362 14.953-3.828 14.953zm4.084-17.285l3.063-5.252c2.771-4.775 6.309-1.969 4.412 1.604-1.456 2.736-3.609 3.575-7.475 3.648z"/><path d="M140.161 300.002c-.629 2.248.572 4.076 3.146 4.076 1.531 0 3.428-.984 5.25-2.479.184 1.459 1.351 2.479 3.283 2.479 2.02 0 4.234-1.395 6.393-3.357-.42 2.049.541 3.357 2.41 3.357 2.08 0 4.414-1.896 6.236-3.646-.365 2.043.84 3.646 3.246 3.646 3.137 0 6.747-3.354 9.883-7.002-.025-.051-.068-.102-.101-.151 2.097-2.438 3.946-5.026 5.269-6.776-1.496 3.938-.693 11.014-4.305 11.014-1.275 0-1.787-1.387-1.787-1.387l-2.371 1.24s.693 3.063 4.157 3.063c.365 0 .692-.037 1.058-.072.037 0 .073-.035.109-.035 2.786-.369 5.55-2.064 7.943-4.226.058 2.495 1.994 4.333 5.145 4.333 4.303 0 8.57-3.354 11.707-7.002-.255-.512-.912-1.094-1.422-1.313l-.255.293c-2.735 3.172-6.236 5.688-8.897 5.688-2.334 0-3.721-1.459-1.97-4.521l.365-.656c2.442 1.021 7.038.547 9.883-4.377l.547-.947c2.042-3.502.073-6.127-3.026-6.127-3.063 0-5.508 1.604-7.111 4.375l-3.684 6.318c-.035-.012-.07-.037-.104-.046l-.255.292a23.678 23.678 0 0 1-4.559 4.121c1.203-3.609.948-9.152 3.282-14.004l-2.844-1.531c-1.568 2.15-4.996 7.11-8.425 11.122.033.046.074.091.111.138l-.136.154c-2.735 3.172-5.397 5.688-7.075 5.688-.838 0-1.312-.582-.438-2.078l8.096-14.188h-3.793l-6.747 11.779c-2.881 2.626-5.104 4.084-5.835 3.756-.947-.4 0-1.822.475-2.625l7.402-12.91h-3.793l-6.036 10.446a2.128 2.128 0 0 0-.288-.162l-.255.292c-2.735 3.172-5.397 5.688-7.075 5.688-.838 0-1.312-.582-.438-2.078l6.127-10.723h-2.152c.146-1.604-1.494-3.83-3.975-3.83-2.042 0-4.887 1.605-6.491 4.377l-3.846 6.637a2.85 2.85 0 0 0-.577-.364l-.255.292c-2.735 3.172-6.236 5.688-8.897 5.688-2.334 0-3.721-1.459-1.971-4.521l3.902-6.782c2.188-3.757 6.054-3.137 3.791.801l-.547.949h3.101l.547-.949c2.042-3.5.073-6.127-3.026-6.127-3.063 0-5.508 1.605-7.111 4.377l-3.77 6.467a2.414 2.414 0 0 0-.348-.194l-.255.292c-2.735 3.172-6.236 5.688-8.897 5.688-2.335 0-3.721-1.459-1.971-4.521l.365-.657c2.443 1.021 7.039.547 9.883-4.375l.547-.949c2.042-3.5.073-6.127-3.027-6.127-3.062 0-5.507 1.605-7.11 4.377l-3.976 6.818c-2.371 4.049-.328 7.768 4.157 7.768 3.341 0 6.657-2.022 9.442-4.635-.098 2.646 1.865 4.635 5.141 4.635 3.1.002 6.176-1.738 8.828-4.074zm58.029-9.563c2.188-3.756 6.054-3.137 3.791.802l-.547.948c-1.822 3.1-4.267 3.026-5.688 2.516l2.444-4.266zm-54.191 9.227l5.288-9.227c2.042-3.539 6.09-2.627 4.229.802l-2.953 5.18c-2.297 3.608-4.56 5.323-6.127 5.323-.837 0-1.312-.583-.437-2.078zm-24.184-9.227c2.188-3.756 6.054-3.137 3.791.802l-.547.948c-1.822 3.1-4.267 3.026-5.688 2.516l2.444-4.266zM248.398 304.078c4.304 0 8.572-3.354 11.707-7.002-.254-.512-.91-1.094-1.422-1.313l-.254.293c-2.736 3.172-6.236 5.688-8.9 5.688-2.334 0-3.721-1.459-1.971-4.521l.365-.656c2.444 1.021 7.038.547 9.883-4.377l.547-.947c2.043-3.502.074-6.127-3.026-6.127-3.062 0-5.505 1.604-7.11 4.375l-3.693 6.337c-.037-.019-.076-.048-.112-.063l-.256.293c-2.734 3.172-5.396 5.688-7.074 5.688-.839 0-1.312-.583-.438-2.079l5.471-9.591c1.642-2.881.072-4.961-2.043-4.961-1.643 0-3.393.912-5.287 2.882l6.054-10.54h-3.793l-10.697 18.561a2.478 2.478 0 0 0-.434-.252l-.256.292c-2.735 3.173-5.396 5.688-7.075 5.688-.838 0-1.312-.583-.438-2.079l8.133-14.187h3.101l1.095-1.824h-3.137l3.574-6.199h-3.793l-3.574 6.199h-3.428l-1.094 1.824h3.463l-7.622 13.203c-1.604 2.809-.474 5.396 2.589 5.396 1.885 0 3.941-1.217 5.962-2.975l-1.504 2.609h3.83l5.762-10.029c5.835-7.33 8.425-6.382 6.783-3.574l-4.923 8.571c-1.604 2.808-.475 5.396 2.589 5.396 2.305 0 4.864-1.812 7.304-4.221.109 2.441 2.039 4.222 5.142 4.222zm3.064-13.639c2.188-3.756 6.056-3.137 3.793.802l-.547.948c-1.824 3.1-4.269 3.026-5.69 2.516l2.444-4.266zM363.417 295.766l-.256.291c-2.731 3.172-5.396 5.688-7.074 5.688-.838 0-1.312-.583-.438-2.079l12.838-22.209h-3.793l-5.579 9.628c-.656-1.058-1.896-1.97-3.466-1.97-2.043 0-4.887 1.604-6.491 4.376l-3.712 6.405c-.079-.047-.161-.101-.235-.133l-.256.293c-2.733 3.172-5.396 5.688-7.074 5.688-.84 0-1.312-.583-.438-2.079l5.47-9.591c1.644-2.881.073-4.961-2.041-4.961-1.644 0-3.354.875-5.252 2.846l1.422-2.479h-3.793l-6.062 10.486a2.622 2.622 0 0 0-.36-.203l-.257.293c-2.733 3.172-5.396 5.688-7.073 5.688-.838 0-1.312-.583-.438-2.079l6.127-10.722h-2.151c.146-1.604-1.494-3.83-3.976-3.83-2.043 0-4.889 1.604-6.492 4.375l-3.666 6.33-.207.234c-2.733 3.172-5.396 5.688-7.073 5.688-.839 0-1.312-.582-.438-2.078l3.793-6.637c1.313-2.299.691-3.646-.547-5.143l-2.115-2.554c-.547-.692-.547-1.458.22-2.188l-1.97-2.15c-2.151 1.934-2.334 4.084-.985 5.835l.33.438c-1.679 2.371-3.939 5.58-6.421 8.497.074.107.164.215.259.321-3.125 3.593-5.781 5.918-8.763 7.19l4.813-8.242H286l-.4.658c-2.006 3.537-4.305 6.054-7.258 6.054-2.59 0-3.062-2.589-.803-6.455l1.059-1.859c.691.108 1.387.183 2.15.183 13.494 0 20.021-18.051 8.135-18.051-2.08 0-4.561 1.459-6.273 4.448l-5.907 10.175c-2.226-1.166-3.392-3.281-3.392-5.396 0-1.75.804-3.501 2.441-4.776l-1.238-2.226c-2.699 1.934-3.902 4.521-3.902 7.074 0 3.027 1.716 5.944 4.777 7.55l-1.131 1.97c-2.662 4.596-2.188 9.7 3.174 9.7 1.604 0 2.953-.474 4.121-1.204l-.986 1.715c-5.141 1.566-8.313 3.646-8.313 6.49 0 3.646 5.58 4.413 8.313-.255l2.918-4.996c3.939-1.239 7.806-3.938 11.964-8.752a2.38 2.38 0 0 0-.236-.356c1.685-1.979 3.113-3.889 5.972-7.775l.51.621c.475.619.656 1.386.219 2.151l-4.012 6.964c-1.605 2.807-.475 5.396 2.59 5.396 1.906 0 3.988-1.244 6.033-3.036-.045 1.745 1.147 3.036 3.311 3.036 1.531 0 3.428-.984 5.25-2.479.184 1.459 1.352 2.479 3.283 2.479 1.816 0 3.791-1.13 5.742-2.785l-1.398 2.421h3.828l5.799-10.104c5.799-7.256 8.389-6.309 6.746-3.5l-4.922 8.57c-1.604 2.809-.475 5.396 2.588 5.396 2.018 0 4.227-1.389 6.381-3.346-.201 1.9 1.008 3.346 3.295 3.346 1.531 0 3.428-.984 5.252-2.479.183 1.46 1.351 2.479 3.281 2.479 3.137 0 6.746-3.354 9.883-7.002-.259-.507-.914-1.091-1.427-1.307zm-77.962-14.152c1.131-1.933 2.371-2.771 3.43-2.771 6.018 0 1.787 12.253-8.133 12.253h-.766l5.469-9.482zm-8.059 28.591c-.801 1.422-2.078 1.204-2.078.184 0-.984.875-2.114 3.793-3.246l-1.715 3.062zm39.693-13.784c-2.299 3.608-4.56 5.323-6.127 5.323-.84 0-1.312-.583-.438-2.079l5.287-9.228c2.043-3.537 6.09-2.625 4.23.803l-2.952 5.181zm36.702-.22c-2.299 3.756-4.633 5.543-6.236 5.543-.838 0-1.312-.583-.438-2.079l5.287-9.228c2.043-3.537 6.09-2.625 4.229.803h.035l-2.877 4.961zM236.713 331.764l-.255.293c-2.733 3.172-5.396 5.688-7.074 5.688-.84 0-1.312-.583-.438-2.079l5.471-9.591c1.642-2.881.071-4.96-2.043-4.96-1.642 0-3.354.875-5.251 2.845l1.422-2.479h-3.793l-6.111 10.573a2.721 2.721 0 0 0-.484-.291l-.256.293c-1.713 1.858-3.829 2.771-5.725 2.809l3.573-6.163c2.297-3.977.183-7.73-3.392-7.73-2.918 0-5.178 1.167-7.367 4.96l-1.86 3.245-1.626 2.781a2.407 2.407 0 0 0-.343-.192l-.255.293c-3.137 3.608-5.799 5.942-8.789 7.222l10.395-17.797h-3.793l-6.709 11.67c-2.918 2.697-5.179 4.192-5.908 3.864-.948-.399 0-1.822.474-2.625l7.403-12.909h-3.793l-6.051 10.47c-.113-.071-.227-.143-.332-.188l-.255.293c-2.735 3.173-5.397 5.688-7.075 5.688-.838 0-1.312-.583-.438-2.079l5.47-9.591c1.642-2.881.073-4.96-2.042-4.96-1.641 0-3.355.875-5.251 2.845l1.423-2.479h-3.794l-6.062 10.485a2.622 2.622 0 0 0-.36-.203l-.255.293c-2.734 3.173-5.396 5.688-7.075 5.688-.838 0-1.312-.583-.438-2.079l6.128-10.721h-2.152c.146-1.604-1.495-3.83-3.976-3.83-2.041 0-4.887 1.604-6.49 4.377l-3.918 6.763c-.26-.234-.559-.417-.831-.49l-.255.293c-2.735 3.173-6.09 5.688-9.848 5.688-2.588 0-4.156-2.589-1.896-6.455l1.058-1.859c.693.108 1.387.185 2.151.185 4.048 0 8.644-2.08 11.634-7.295 1.057-1.859 1.531-3.609 1.531-5.104 0-3.429-2.225-5.651-5.032-5.651-2.079 0-4.559 1.459-6.272 4.448l-5.908 10.176c-2.225-1.167-3.393-3.282-3.393-5.397 0-1.75.803-3.501 2.443-4.776l-1.24-2.226c-2.699 1.935-3.902 4.521-3.902 7.075 0 3.025 1.715 5.943 4.777 7.549l-1.13 1.971c-2.661 4.596-1.094 9.699 4.267 9.699 4.242 0 7.354-1.889 9.969-4.372-.826 2.384.374 4.372 3.059 4.372 1.532 0 3.428-.984 5.252-2.479.182 1.459 1.35 2.479 3.281 2.479 1.816 0 3.792-1.129 5.742-2.783l-1.398 2.42h3.829l5.798-10.103c5.799-7.258 8.389-6.311 6.748-3.502l-4.923 8.567c-1.604 2.81-.474 5.396 2.589 5.396 2.041 0 4.282-1.425 6.465-3.423-.455 2.086.508 3.423 2.397 3.423 1.824 0 3.901-1.531 5.616-3.063l-2.079 3.574c-5.142 1.53-8.351 3.646-8.351 6.49 0 3.646 5.58 4.413 8.313-.255l2.917-4.996c3.171-.998 6.297-2.965 9.562-6.195-.523 5.297 6.533 6.505 10.787 1.126h.838c1.385 0 3.26-.522 4.953-1.455l-2.55 4.41h3.83l5.798-10.103c5.799-7.258 8.39-6.311 6.747-3.502l-4.923 8.57c-1.604 2.81-.475 5.396 2.59 5.396 3.138 0 6.746-3.354 9.883-7.002-.256-.511-.911-1.095-1.423-1.313zm-94.387-14.15c1.13-1.934 2.371-2.771 3.428-2.771 1.423 0 2.079.947 2.079 2.334 0 3.538-4.303 9.919-10.211 9.919h-.766l5.47-9.482zm13.355 14.807c-2.297 3.609-4.559 5.323-6.127 5.323-.838 0-1.312-.583-.438-2.079l5.288-9.228c2.042-3.536 6.09-2.625 4.229.804l-2.952 5.18zm28.851 13.783c-.803 1.423-2.079 1.204-2.079.185 0-.984.912-2.114 3.829-3.246l-1.75 3.061zm25.528-14.184h-.184c-1.24 0-2.225 1.021-2.225 2.263 0 .475.146.911.365 1.274l-.037.073c-1.786 3.063-6.127 2.479-3.865-1.459l2.881-4.996 1.823-3.101c2.663-4.521 6.309-2.734 4.012 1.204l-2.77 4.742zM324.621 333.077c-.219-.583-.875-1.167-1.422-1.313l-.256.293a23.578 23.578 0 0 1-4.56 4.12c1.203-3.609.947-9.152 3.281-14.004l-2.847-1.532c-1.565 2.151-4.995 7.111-8.424 11.123.006.011.017.019.021.025-.016-.007-.031-.021-.047-.025l-.254.293c-2.736 3.172-5.396 5.688-7.076 5.688-.838 0-1.641-.839-1.641-2.553v-1.568c2.662.328 5.471-1.423 7.258-4.521l1.021-1.75c3.535-6.054-2.227-8.061-6.092-4.521l5.396-9.373h-3.793l-10.815 18.767a3.09 3.09 0 0 0-.692-.459l-.257.293c-2.733 3.173-6.235 5.688-8.897 5.688-2.334 0-3.719-1.459-1.969-4.521l3.899-6.782c2.188-3.757 6.055-3.137 3.793.803l-.547.948h3.102l.548-.948c2.041-3.501.071-6.127-3.027-6.127-3.063 0-5.508 1.604-7.111 4.377l-3.732 6.404c-.078-.048-.16-.102-.233-.134l-.257.293c-2.733 3.173-5.396 5.688-7.073 5.688-.84 0-1.312-.583-.438-2.079l8.097-14.186h-3.794l-6.745 11.778c-2.884 2.625-5.104 4.084-5.836 3.756-.947-.399 0-1.822.475-2.625l7.402-12.909h-3.793l-7.365 12.743a22.635 22.635 0 0 1-2.449 1.952c1.203-3.609.947-9.152 3.281-14.004l-2.844-1.532c-1.568 2.151-10.321 13.75-13.75 17.762.327.474.876.947 1.423 1.313 2.15-2.479 9.372-11.779 10.723-13.565-1.496 3.938-.693 11.014-4.305 11.014-1.275 0-1.787-1.387-1.787-1.387l-2.37 1.239s.692 3.063 4.157 3.063c.365 0 .693-.036 1.059-.072.035 0 .072-.036.107-.036 1.928-.255 3.842-1.143 5.631-2.379-.012 1.542.92 2.487 2.51 2.487 2.076 0 4.412-1.896 6.234-3.646-.363 2.043.838 3.646 3.246 3.646 2.355 0 4.979-1.894 7.467-4.38.033 2.52 1.975 4.38 5.145 4.38 3.078 0 6.138-1.72 8.775-4.031l-2.113 3.668h3.83l4.34-7.55v3.026c0 3.244.619 4.887 3.683 4.887 3.137 0 6.748-3.354 9.885-7.002-.006-.011-.019-.021-.021-.034.016.013.031.023.047.034 2.152-2.479 4.049-5.143 5.396-6.93-1.493 3.938-.69 11.015-4.303 11.015-1.274 0-1.787-1.387-1.787-1.387l-2.371 1.239s.693 3.063 4.158 3.063c.362 0 .69-.036 1.06-.072.034 0 .069-.036.106-.036 3.863-.514 7.693-3.576 10.537-6.895zm-25.187-2.991l1.094-1.896c4.377-6.092 7.367-4.413 6.018-2.115l-1.822 3.136c-1.135 1.97-4.453 3.355-5.29.875zM324.475 335.665c-1.24 0-2.189.984-2.189 2.226s.949 2.188 2.189 2.188c1.237 0 2.225-.947 2.225-2.188a2.214 2.214 0 0 0-2.225-2.226zM324.656 334.171h3.83l11.887-20.715h-3.791z"/></g><path fill="#FFF" d="M80.412 277.581a2.466 2.466 0 0 1-.676 1.676 2.596 2.596 0 0 1-.829.574 2.655 2.655 0 0 1-1.1.221 3.44 3.44 0 0 1-1.303-.253 2.946 2.946 0 0 1-1.064-.729 3.11 3.11 0 0 1-.575-1.049 4.017 4.017 0 0 1-.203-1.285c0-.855.151-1.646.457-2.368a6.003 6.003 0 0 1 1.302-1.929c.248-.248.529-.479.846-.693a9.05 9.05 0 0 1 .896-.541c.281-.146.523-.264.727-.354.203-.091.328-.146.373-.17l1.353 1.996c-.249.09-.524.209-.829.354a4.602 4.602 0 0 0-.861.54 2.953 2.953 0 0 0-.678.762c-.18.293-.281.633-.304 1.016a2.74 2.74 0 0 1 1.725.575c.495.385.743.935.743 1.657zm7.866 0c0 .293-.057.587-.17.879-.112.293-.281.56-.506.796-.227.236-.502.43-.83.574a2.668 2.668 0 0 1-1.1.221c-.451 0-.885-.084-1.302-.253a2.935 2.935 0 0 1-1.065-.728 3.144 3.144 0 0 1-.574-1.049 4.045 4.045 0 0 1-.203-1.285c0-.855.152-1.646.457-2.368a6.02 6.02 0 0 1 1.302-1.929c.248-.248.528-.479.847-.692.314-.214.613-.394.896-.541.282-.146.524-.265.728-.354.204-.088.327-.146.372-.168l1.353 1.996c-.248.09-.523.209-.828.354a4.533 4.533 0 0 0-.863.541 2.889 2.889 0 0 0-.676.761 2.134 2.134 0 0 0-.305 1.017c.653 0 1.229.19 1.725.574.494.382.742.932.742 1.654zM353.439 336.523c0-.295.057-.589.168-.881.113-.294.283-.559.508-.795.227-.236.502-.43.828-.574a2.668 2.668 0 0 1 1.1-.221c.451 0 .887.085 1.303.253.418.17.771.412 1.064.729.25.293.441.644.576 1.048.135.406.203.834.203 1.286 0 .854-.152 1.646-.457 2.367a6.034 6.034 0 0 1-1.303 1.928 5.581 5.581 0 0 1-.849.693c-.312.215-.61.395-.896.541-.281.146-.522.266-.729.354a8.514 8.514 0 0 0-.371.17l-1.354-1.996a9.7 9.7 0 0 0 .828-.354c.305-.146.592-.327.862-.541.271-.215.496-.469.677-.763a2.13 2.13 0 0 0 .305-1.014 2.733 2.733 0 0 1-1.725-.576c-.489-.38-.738-.934-.738-1.654zm-7.867 0c0-.295.057-.589.17-.881a2.38 2.38 0 0 1 .506-.795c.227-.236.504-.43.83-.574a2.664 2.664 0 0 1 1.1-.221c.451 0 .885.085 1.303.253.416.17.771.412 1.064.729.248.293.439.644.574 1.048.137.406.203.834.203 1.286 0 .854-.152 1.646-.457 2.367a6.001 6.001 0 0 1-1.301 1.928 5.662 5.662 0 0 1-.847.693 9.09 9.09 0 0 1-.896.541c-.281.146-.523.266-.729.354a7.692 7.692 0 0 0-.37.17l-1.355-1.996c.25-.09.525-.209.83-.354.305-.146.592-.327.861-.541a2.94 2.94 0 0 0 .678-.763c.18-.293.281-.631.305-1.014a2.746 2.746 0 0 1-1.727-.576c-.494-.38-.742-.934-.742-1.654z"/></symbol><symbol id="facebook" viewBox="0 0 8.672 18.943"><path d="M6.275 3.356h2.397V.001H5.794C2.656.181 1.54 2.387 1.948 6.115H0v3.518h1.959v9.312h3.837V9.633h2.856V6.115H5.787c-.021-1.046-.037-2.406.488-2.759z"/></symbol><symbol id="icon_burger" viewBox="0 0 76.166 68.959"><path d="M71.914 46.042H4.252A4.265 4.265 0 0 0 0 50.294v3.454A4.265 4.265 0 0 0 4.252 58h.956v1.037c0 5.457 4.464 9.922 9.921 9.922h45.908c5.456 0 9.921-4.465 9.921-9.922V58h.956a4.265 4.265 0 0 0 4.252-4.252v-3.454a4.264 4.264 0 0 0-4.252-4.252zm-3.956 12.995c0 3.815-3.104 6.922-6.921 6.922H15.129a6.929 6.929 0 0 1-6.921-6.922V58h59.75v1.037zm5.208-5.289c0 .679-.573 1.252-1.252 1.252H4.252A1.268 1.268 0 0 1 3 53.748v-3.454c0-.679.573-1.252 1.252-1.252h67.662c.679 0 1.252.573 1.252 1.252v3.454zM16.162 37.856l5.473 4 5.477-4 5.479 4 5.478-4 5.479 4 5.478-4 5.479 4 5.48-4 5.489 4 6.368-4.644-1.768-2.424-4.6 3.356-5.489-4-5.48 4-5.479-4.001-5.478 4.001-5.479-4.001-5.478 4.001-5.479-4.001-5.476 4.001-5.473-4.002-5.477 4.002-4.593-3.355-1.77 2.422 6.363 4.645zM70.888 31.094c.041-.61.055-2.616.037-3C70.242 12.476 55.804 0 38.083 0 20.363 0 5.924 12.476 5.241 28.094c-.017.384-.004 2.389.039 3h65.608zM38.083 3c16.031 0 29.15 11.154 29.842 25.094H8.241C8.933 14.154 22.051 3 38.083 3z"/><circle cx="38.083" cy="15.042" r="2"/><circle cx="30.083" cy="10.083" r="2"/><circle cx="46.083" cy="10.083" r="2"/></symbol><symbol id="icon_gift" viewBox="0 0 63 75.084"><path d="M60.165 22.23H35.758c13.604-6.815 14.688-11.115 14.188-13.52-1.145-3.916-5.604-6.938-9.848-5.341-5.484 2.063-7.029 10.262-8.514 16.19-1.894-5.998-3.726-13.649-8.011-17.525C22.331.909 20.524-.203 17.897.031c-3.965.352-9.652 5.317-7.344 10.849 2.217 5.313 9.539 8.67 14.354 11.35H2.834A2.843 2.843 0 0 0 0 25.065V36.25a2.842 2.842 0 0 0 2.835 2.834h.27v35.999h56.958V39.084h.104a2.84 2.84 0 0 0 2.835-2.834V25.065a2.846 2.846 0 0 0-2.837-2.835zM41.766 5.873c2.07-.306 4.907 1.283 5.176 3.171.387 2.723-3.349 5.192-5.008 6.343-2.483 1.723-4.853 2.611-7.178 4.006.872-3.645 2.512-12.854 7.01-13.52zm-22.534 9.848c-2.19-1.467-6.444-4.378-6.342-7.678.11-3.552 5.655-6.491 8.68-3.839 3.797 3.331 5.625 10.972 7.01 16.357-3.199-1.519-6.23-2.753-9.348-4.84zm5.882 56.426H6.042V39.084h19.072v33.063zm0-36.063H3V25.23h22.114v10.854zm10.001 36.062h-7.063V25.23h7.063v46.916zm22.01.001H38.053V39.084h19.072v33.063zM60 36.084H38.053V25.23H60v10.854z"/></symbol><symbol id="icon_house" viewBox="0 0 74.695 72.346"><path d="M29.503 65.345h16V41.407h-16v23.938zm13.063-2.938H32.441V44.345h10.125v18.062z"/><path d="M72.62 39.44l2.075-2.078-9.907-9.912V.47H50.974v13.161L37.349 0 0 37.363l2.077 2.078 7.832-7.832v37.8H5.971v2.938h63.875v-2.938h-5.06V31.608l7.834 7.832zM53.913 3.408h7.938v21.104l-7.938-7.94V3.408zm7.937 65.999H12.846V28.671L37.348 4.169 61.85 28.671v40.736z"/><path d="M29.753 27.21a7.75 7.75 0 0 0 15.5 0 7.75 7.75 0 0 0-15.5 0zm7.75-4.969a4.97 4.97 0 1 1 0 9.941 4.97 4.97 0 0 1 0-9.941zM16.909 41.407h3v3.938h-3zM22.846 41.407h3v3.938h-3zM16.909 47.407h3v3.938h-3zM22.846 47.407h3v3.938h-3zM48.846 41.407h3v3.938h-3zM54.784 41.407h3v3.938h-3zM48.846 47.407h3v3.938h-3zM54.784 47.407h3v3.938h-3z"/></symbol><symbol id="twitter" viewBox="0 0 17.5 14.664"><path d="M11.283.153c1.736-.484 3.074.264 3.685 1.15.694-.225 1.372-.47 2.072-.69-.004.841-.538 1.478-.883 1.728.704.165 1.343-.481 1.343-.481-.175.977-1.035 1.746-1.611 1.977-.239 6.592-3.272 10.955-10.382 10.823h-.46c-.422 0-4.29-.449-5.047-1.843 2.341.192 4.011-.412 4.835-1.149-.989-.293-2.761-.465-3.07-2.881.362.104.583.223 1.228.116C1.757 8.067.385 7.366.461 5.218c.294.319 1.1.523 1.381.461C1.117 5.444-.188 2.398.921.843 2.794 2.655 4.769 4.364 8.29 4.528c.216-2.24 1.171-3.74 2.993-4.375z"/></symbol><symbol id="Vector_Smart_Object" viewBox="42.185 0 101.668 83.984"><path fill="#23A9E1" d="M42.185 0l50.581 59.054L143.853 0z"/><path fill="#491213" d="M93.104 0H42.185v22.463l50.582 61.521.338-.424 50.748-60.394V0H93.104zm0 57.05l-.338.41L45.893 1.776h94.418L93.104 57.05z"/><path fill="#491213" d="M92.766 57.46l.338-.41 27.576-32.287c-6.912.949-11.863 6.076-18.604 4.955-3.396-.563-3.498-2.514-4.469-4.455-.746-1.493-1.938-1.303-3.486-1.91-1.443-.564-2.277-1.738-5.162-1.061-2.528.592-2.809 4.518-5.953 4.293-1.688-.121-1.811-2.498-4.244-5.539-6.301-7.571-12.157-6.523-16.245.475L92.766 57.46z"/><path fill="#FFF" d="M65.464 32.248c.513.618.892 1.284.806 2.116-.06.579-.937 1.55-.271 1.847l2.242-2.834c-.602-.151-5.365-5.849-5.441-6.473l-3.159 1.734c.164.66 1.295.005 1.854.046.828.06 1.424.56 1.953 1.151-1.729 1.449-5.932 5.018-6.375 5.09-.227.037-1.089-.601-1.102-.055-.007.262.853 1.014 1.015 1.209.743.885 1.485 1.771 2.229 2.652.619-.281-.108-.73.205-1.242.235-.374 4.904-4.265 6.044-5.241zM60.192 25.269c.442-.095.623.434.957-.056-.814-.974-1.633-1.945-2.447-2.918-.372-.441-.841-.916-.707.019.089.63-6.113 5.664-6.493 5.819-.479.197-.758-.416-1.108.098l2.192 2.607c.246.293.478.612.747.883.339.339.208-.672.225-.586-.092-.512.526-.947.854-1.228 1.544-1.36 5.397-4.588 5.78-4.638zM51.42 24.352c-1.768.523-3.649-.164-4.207-2.042-.543-1.835.614-3.757 2.071-4.802 1.438-1.031 3.589-.969 4.373.838.346.8.157 1.707-.095 2.503-.16.506-.598 1 .057 1.288.859-1.096 1.721-2.189 2.581-3.285-1.056-.633-1.519-1.684-2.301-2.596-.882-1.07-2.063-2.078-3.481-2.283-2.87-.406-5.574 2.556-5.795 5.244-.137 1.457.374 2.849 1.246 4.002.75.994 1.867 1.623 2.436 2.754.262.095 2.704-1.033 3.285-1.256-.052-.111-.089-.275-.17-.365-.761.225 0 0 0 0zM90.721 60.759c-1.15-.768-4.025-4.689-4.574-5.34-.107-.131-.22-.262-.328-.393-.012-.016-.283.225-.246.189-.174.146.135.574-.053.865-.793 1.238-5.759 4.98-6.017 5.162-.555.385-1.164-.158-1.487.314.719.855 2.778 3.543 3.02 3.582.479.078.146-.814.211-1 .123-.369 2.633-2.445 3.549-3.211.336-.281.688.426.888.723.327.484.475 1 .299 1.568-.117.371-.717.92-.25 1.174l2.612-3.049c.253-.293-.565-.037-.469-.086-.371.189-.719.234-1.063-.029-.097-.068-1.088-1.082-.99-1.166.432-.359.959-.963 1.518-1.1.863-.213 1.582 1.516 1.709 2.129a3.462 3.462 0 0 1-.075 1.75c-.123.387-.486.697.018.93.713-.973 1.424-1.943 2.133-2.92a.657.657 0 0 1-.405-.092c-.128-.084.139.071 0 0zM80.496 56.628c2.205-1.855 2.482-5.053.771-7.338-1.867-2.49-5.371-3.097-7.806-1.052-2.203 1.853-2.487 5.046-.758 7.324 1.991 2.621 5.2 2.918 7.793 1.066 1.157-.974-.099.071 0 0zm-.465-4.752c-.646 1.51-2.201 3.063-3.732 3.666-1.817.715-3.1-.826-2.358-2.553.649-1.516 2.203-3.057 3.735-3.666 1.852-.733 3.066.846 2.355 2.553-.38.889.071-.169 0 0zM74.052 42.021c.476.062.927.551 1.269.043-.74-.879-1.482-1.759-2.228-2.638-.596.269.048.55-.194.972-.244.426-2.56.78-3.176.89.225-.644.896-2.615 1.157-2.835.543-.444.884.433 1.283-.141-.916-1.084-1.83-2.17-2.744-3.253-.311-.366-.559-1.028-.979-.68.039-.031.006 1.473-.088 1.731-.086.235-.937 3.64-1.927 4.472-.493.414-2.237 1.934-2.702 2.096-.541.188-.824-.598-1.22-.037l2.49 2.957c.125.148.603.863.768.893.521.096.06-.893.113-1.086.15-.43 2.5-2.719 3.496-2.857 1.462-.208 3.201-.706 4.682-.527.339.042-.351-.043 0 0zM111.391 52.449c.19.648.299 1.332.215 2.01-.107.873-.979 2.924-2.174 2.34-1.168-.574-2.193-1.729-3.188-2.553.803-.936 1.508-1.748 2.854-1.295.37.123.688-.035.299-.262-.404-.234-3.113-1.965-3.261-1.799-.271.311.527.867.222 1.473-.229.447-.609.834-.933 1.219-.721-.607-1.924-1.252-1.057-2.256.541-.66 1.25-1.172 2.098-1.342.564-.113 1.841.389 2.007-.225-1.089-.521-2.173-1.045-3.259-1.564.177.798-3.35 4.523-4.131 5.462-.112.139-.658.609-.664.799-.01.428.621.096.656.084.486-.182 6.816 5.107 6.973 5.471.101.281-.221.574-.028.73-.011-.01.229.217.254.186.391-.469 4.521-5.977 5.373-6.217-.793-1.215-1.588-2.432-2.367-3.652-.59.258-.021.949.111 1.391zM105.229 59.152c-2.076-1.34-5.597 1.279-6.125 1.531-1.039.49-1.789-.543-1.25-1.502.469-.83 1.393-1.234 2.311-1.289.275-.018 1.351.197 1.459.025.129-.203.228-.223.041-.348-.854-.578-1.711-1.154-2.565-1.732-.177 1.057-1.386 1.729-2.076 2.439-.822.855-1.521 1.932-1.521 3.156 0 1.135.679 2.143 1.677 2.66 1.137.592 2.317.117 3.323-.51.627-.393 1.254-.857 1.924-1.172.996-.467 2.306-.063 1.953 1.27-.28 1.074-1.352 2.063-2.403 2.34-.617.164-1.271.109-1.873-.09-.433-.141-.992-.734-1.229-.111 1.16.848 2.32 1.691 3.48 2.537.104-.76.522-1.09 1.086-1.563.735-.646 1.438-1.318 1.994-2.129 1.158-1.692 1.538-4.061-.206-5.512zM105.229 59.152c.926.598-.59-.494 0 0zM134.462 21.838c-.007.004-.007.004 0 0z"/><path fill="#FFF" d="M141.919 19.629c-.729.729-8.42-2.342-8.981-2.765-.289-.116-.299-1.321-.705-.833-.402.488-.81.977-1.215 1.463-.418.506-.838 1.01-1.256 1.514-.261.313-.537.457-.039.72.838-.419 5.418 7.346 5.008 8.461-.726.376-6.914-5.058-7.08-5.415-.053-.146.272-1.021-.211-.945-.229.036-.744.896-.89 1.072l-.889 1.072c.332.484.516-.021.959.042.383.077 1.844 1.331 2.24 1.663-.726.027-2.687.132-2.935.113-.903.112-.422-.662-1.016-.931-.76.922-1.52 1.843-2.277 2.765-.44.535-.885 1.071-1.325 1.606-.054.065-.047.032.051.112.33.272.104.168.567.006.507-.178 6.56 4.931 6.775 5.189.377.45-.154.976.412 1.221.6-.728 1.197-1.457 1.797-2.184.092-.109.141-.1.021-.197-.429-.354-.478.211-1.002.153-.533-.089-4.396-3.368-5.896-4.61l8.197-.304c.301-.011 1.141.896 1.067 1.216-.079.379-.463.559.056.795.479-.576.983-1.149 1.455-1.734l.229-.282a.737.737 0 0 0 .209-.265l.168-.211c.426-.485 1.801-2.006 1.635-2.15-.461-.4-.684.466-1.297-.054-.348-.249-1.223-1.788-1.442-2.162-.265-.449.606-.897.963-1.119.776-.481 3.248-1.183 3.481.349.041.258-.271.549-.084.703.045.037.205.242.271.163.164-.196 2.36-2.843 3.301-3.969-.094-.082-.204-.223-.322-.268zm-7.373 2.155c.077-.049.153-.097 0 0l-.084.054c.015-.008.047-.029.082-.051a5.723 5.723 0 0 0-.959.76l-1.563-2.692c1.178.491 2.354.985 3.524 1.481-.354.098-.69.252-1 .448zM124.8 32.996c-2.375-1.979-5.629-1.404-7.586.831-1.901 2.313-1.711 5.664.605 7.615 2.34 1.926 5.67 1.438 7.572-.847 1.9-2.302 1.769-5.667-.591-7.599zm-.28 6.613c-.019.02-.023.025-.025.025-1.231 1.293-3.356.098-4.506-.73-1.146-.828-3.109-2.568-1.855-4.104 1.058-1.287 3.125-.231 4.191.481 1.199.804 3.412 2.597 2.275 4.216.073-.089.127-.144-.08.112z"/><path fill="#FFF" d="M124.8 32.996c1.173.959-.252-.212 0 0zM124.492 39.637l.025-.026c.028-.037.057-.073.08-.11a2.226 2.226 0 0 0-.105.136zM118.208 42.119c.111.094.273.225-.062-.057-2.836-2.127-6.193-1.504-8.402 1.156-.988 1.188-1.977 2.379-2.961 3.566.352.512.764-.117 1.273.176.436.25 6.243 5.101 6.338 5.365.164.459-.254.549.145.875.172.145 4.537-5.244 4.937-6.189.688-1.753.138-3.677-1.268-4.892zm-1.317 6.754c-.24.297-.043.055-.664.65-.308.293-6.438-4.675-6.191-4.943.834-.918 2.566-1.557 3.576-1.299 2.188.561 5.212 3.262 3.279 5.592z"/><path fill="#491213" d="M92.765 57.477l.339-.409L120.68 24.78c-6.913.949-11.864 6.077-18.604 4.956-3.396-.564-3.498-2.514-4.47-4.456-.746-1.493-1.937-1.303-3.486-1.91-1.442-.565-2.277-1.738-5.162-1.061-2.528.593-2.808 4.518-5.952 4.293-1.689-.121-1.812-2.497-4.244-5.539-6.302-7.571-12.158-6.523-16.247.475l30.25 35.939z"/><g><path fill="#23A9E1" d="M88.745 70.916l4.02-6.5 4.004 6.5-4.004 6.514z"/></g><g><path fill="#FFF" d="M65.464 32.265c.513.618.891 1.284.806 2.116-.059.579-.936 1.55-.27 1.846l2.242-2.834c-.603-.151-5.365-5.848-5.442-6.472l-3.159 1.734c.164.661 1.294.005 1.854.046.828.06 1.425.56 1.953 1.152-1.729 1.449-5.932 5.017-6.374 5.09-.227.036-1.089-.601-1.102-.056-.006.262.853 1.014 1.015 1.21l2.229 2.653c.619-.282-.11-.732.205-1.243.233-.374 4.902-4.267 6.043-5.242zM60.191 25.285c.443-.095.624.434.958-.056-.815-.973-1.633-1.945-2.448-2.917-.371-.442-.841-.916-.706.018.089.63-6.113 5.664-6.493 5.82-.479.197-.758-.417-1.109.097l2.193 2.608c.246.292.477.612.747.882.339.339.208-.672.224-.585-.091-.513.527-.948.855-1.228 1.544-1.361 5.397-4.588 5.779-4.639zM51.42 24.368c-1.768.523-3.65-.164-4.207-2.042-.543-1.835.614-3.757 2.071-4.801 1.438-1.032 3.589-.97 4.373.838.346.799.157 1.706-.095 2.502-.16.506-.597 1 .057 1.289.859-1.096 1.721-2.19 2.581-3.286-1.056-.633-1.519-1.683-2.301-2.595-.882-1.071-2.063-2.079-3.481-2.284-2.87-.406-5.574 2.556-5.795 5.245-.137 1.457.374 2.848 1.246 4.001.75.994 1.867 1.623 2.435 2.754.262.095 2.705-1.033 3.286-1.255-.052-.111-.089-.275-.17-.366-.761.226 0 0 0 0zM90.72 60.777c-1.15-.768-4.025-4.689-4.573-5.341-.107-.13-.219-.261-.329-.392-.011-.015-.283.225-.246.19-.173.146.135.573-.052.864-.793 1.24-5.758 4.982-6.016 5.163-.556.384-1.164-.159-1.489.315.719.854 2.78 3.543 3.02 3.582.479.078.147-.814.211-1 .123-.369 2.633-2.445 3.549-3.211.336-.281.688.426.888.723.327.484.475 1 .298 1.568-.116.37-.717.92-.25 1.174l2.613-3.049c.252-.293-.566-.037-.469-.087-.37.19-.719.235-1.063-.028-.096-.07-1.089-1.082-.99-1.166.432-.36.959-.963 1.518-1.1.862-.213 1.582 1.516 1.709 2.129a3.45 3.45 0 0 1-.076 1.75c-.124.387-.487.696.018.93.713-.974 1.423-1.945 2.132-2.92a.695.695 0 0 1-.403-.094c-.127-.085.139.07 0 0zM80.496 56.646c2.205-1.855 2.481-5.053.769-7.339-1.867-2.489-5.371-3.096-7.804-1.052-2.204 1.854-2.489 5.047-.758 7.325 1.991 2.621 5.199 2.918 7.793 1.066 1.156-.975-.099.07 0 0zm-.465-4.753c-.647 1.51-2.201 3.063-3.732 3.667-1.818.715-3.1-.827-2.36-2.553.65-1.516 2.203-3.057 3.737-3.666 1.852-.735 3.066.846 2.355 2.552-.381.89.071-.169 0 0zM74.052 42.037c.475.06.926.55 1.269.042a1300.17 1300.17 0 0 0-2.228-2.637c-.595.269.047.549-.194.971-.244.427-2.56.781-3.176.89.224-.644.896-2.615 1.157-2.835.544-.445.883.432 1.283-.141l-2.743-3.253c-.311-.366-.56-1.028-.98-.68.038-.031.006 1.472-.089 1.733-.086.236-.936 3.638-1.926 4.47-.493.414-2.237 1.934-2.702 2.097-.541.189-.825-.598-1.22-.038l2.491 2.957c.125.148.602.863.767.893.521.094.06-.893.113-1.086.15-.431 2.5-2.719 3.497-2.859 1.461-.205 3.2-.702 4.681-.524.339.042-.352-.043 0 0z"/></g><g><path fill="#DC6243" d="M67.792 22.874c-4.043-.167-2.352-3.954.395-4.808 2.611-.813 8.089 1.717 9.843 3.398-2.782.855-6.386.732-9.446.874-.227-3.12-.959-2.032-.792.536z"/></g><g><path fill="#DC6243" d="M68.807 27.724c-2.04-1.579-1.396-5.266 1.763-4.146 4.005 2.084-.856 3.239-1.763 4.146 0 0 .042-.042 0 0z"/></g><g><path fill="#DC6243" d="M77.295 35.423c-8.62-.071-2.792-13.322.141-12.521 3.373 1.073 2.995 12.622-.141 12.521z"/></g><g><path fill="#DC6243" d="M83.401 31.094c-.84 2.501-2.36 2.968-2.191-.07.193-3.503 2.479-2.662 4.93-4.004 2.04-1.119 3.139-5.214 6.641-2.765 1.563 1.093 3.353.179 3.852 1.833-.025-.084-4.545 10.308-2.031 10.308-4.961 0-2.772-5.922-.874-9.899-1.847.885-4.842 6.688-2.382 7.643-1.281 1.686-5.194 3.945-7.234 2.298-1.554-1.249-.694-3.325-.711-5.344z"/></g><g><path fill="#DC6243" d="M87.505 40.697c-3.489 1.046-8.122-1.207-2.51-2.34 3.483-.704 7.187.778 2.51 2.34.141-.042-.128.043 0 0z"/></g><g><path fill="#DC6243" d="M91.875 40.556c-.736-1.658.562-3.635 2.68-2.199 1.847 1.252-.851 3.106-2.68 2.199z"/></g><g><path fill="#DC6243" d="M88.929 45.224c-2.411-.747-10.537-.561-5.218-2.764 1.64-.679 10.154.098 5.218 2.764z"/></g><g><path fill="#DC6243" d="M92.144 44.871c-.007-.96-.512-2.679 1.354-1.946 2.235.879-1.354 2.651-1.354 1.946 0 0 0-.169 0 0z"/></g><g><path fill="#DC6243" d="M99.363 48.538c-1.437-1.227-2.891-1.295-4.229 0-1.795-3.293-8.318-2.19-11.366-2.651 1.638 4.029 14.864 4.78 15.595 2.651z"/></g><g><path fill="#DC6243" d="M97.46 50.962c-3.151-.146-6.671-.563-9.646.084 1.86.466 6.396 1.795 2.172 2.918 1.516 2.168 3.974 2.029 5.584.127-.654-.322-1.01-.719-1.552-1.057 1.672-.303 3.234-1.267 3.442-2.072z"/></g><g><path fill="#DC6243" d="M101.056 47.085c-5.288-3.112-3.95-5.427.354-7.586 2.254-1.131 7.323-5.208 9.446-3.85l-9.8 11.436z"/></g><g><path fill="#F49774" d="M97.291 39.809c-4.479-4.601 6.688-4.178 8.486-5.796 1.312.437 10.769-8.283 13.071-7.741-1.655 1.941-5.22 8.136-7.774 8.136-1.965 0-3.95-.292-5.473 1.107-2.223 2.048-5.907 3.09-8.31 4.294z"/></g><g><path fill="#F4B1A4" d="M98.758 34.183c-2.453 1.319-4.772-3.907-.537-3.398 2.813.338 5.662-.237 8.348.226-1.927 2.291-4.706 3.553-7.811 3.172z"/></g><g><path fill="#FFF" d="M111.39 52.466c.191.648.299 1.332.215 2.009-.106.873-.979 2.925-2.173 2.34-1.169-.573-2.194-1.728-3.188-2.552.802-.936 1.507-1.749 2.854-1.295.37.123.688-.036.299-.262-.404-.234-3.113-1.965-3.261-1.799-.271.311.528.867.221 1.473-.229.447-.609.834-.932 1.219-.72-.607-1.923-1.253-1.057-2.256.542-.66 1.25-1.172 2.098-1.342.565-.114 1.841.389 2.006-.225-1.087-.521-2.172-1.044-3.258-1.565.177.799-3.349 4.525-4.131 5.463-.113.138-.658.609-.664.798-.009.429.622.097.657.084.485-.181 6.815 5.108 6.973 5.471.1.281-.221.574-.029.731-.011-.01.229.217.253.185.392-.468 4.522-5.976 5.374-6.217a436.347 436.347 0 0 1-2.368-3.651c-.59.258-.019.949.111 1.391zM105.229 59.169c-2.077-1.34-5.596 1.279-6.125 1.531-1.039.491-1.789-.543-1.251-1.502.469-.83 1.394-1.234 2.311-1.289.276-.018 1.35.197 1.459.025.13-.202.228-.221.042-.346l-2.567-1.733c-.176 1.056-1.385 1.728-2.076 2.44-.822.854-1.52 1.931-1.52 3.156 0 1.135.679 2.143 1.677 2.66 1.136.592 2.317.116 3.324-.511.627-.392 1.254-.856 1.924-1.171.996-.467 2.304-.063 1.953 1.27-.282 1.073-1.352 2.062-2.405 2.34-.616.164-1.27.109-1.872-.09-.432-.142-.993-.734-1.229-.111l3.481 2.537c.104-.76.522-1.09 1.086-1.563.735-.646 1.438-1.319 1.994-2.13 1.158-1.692 1.537-4.061-.206-5.513z"/><path fill="#FFF" d="M105.229 59.169c.925.598-.591-.494 0 0zM134.462 21.855c-.007.004-.007.004 0 0z"/><path fill="#FFF" d="M141.92 19.645c-.729.729-8.42-2.341-8.982-2.764-.29-.116-.3-1.321-.705-.833-.403.488-.81.976-1.216 1.463l-1.256 1.513c-.26.314-.537.458-.038.72.837-.419 5.417 7.346 5.008 8.461-.725.376-6.915-5.057-7.081-5.415-.052-.146.273-1.021-.211-.945-.229.036-.743.896-.889 1.072l-.889 1.072c.332.485.517-.021.959.042.383.077 1.844 1.331 2.24 1.664-.725.027-2.685.131-2.934.113-.903.112-.422-.663-1.015-.931-.76.922-1.521 1.843-2.277 2.764l-1.326 1.607c-.054.065-.047.032.05.112.33.273.104.168.568.006.506-.177 6.559 4.931 6.776 5.19.377.45-.154.975.411 1.221.6-.728 1.197-1.457 1.798-2.184.091-.11.141-.1.021-.198-.427-.353-.476.212-1.002.154-.533-.089-4.395-3.369-5.895-4.61l8.198-.304c.301-.011 1.14.896 1.068 1.216-.081.378-.463.558.054.794.479-.575.985-1.149 1.456-1.734l.228-.282a.74.74 0 0 0 .21-.265l.168-.211c.425-.485 1.8-2.006 1.635-2.15-.461-.4-.685.466-1.298-.054-.348-.249-1.223-1.788-1.443-2.162-.264-.449.608-.897.964-1.119.776-.482 3.247-1.183 3.482.348.04.258-.271.55-.084.704.044.037.204.242.27.163.163-.197 2.361-2.843 3.301-3.969-.098-.082-.207-.224-.324-.269zm-7.374 2.156c.077-.049.153-.098 0 0a2.533 2.533 0 0 0-.084.054l.082-.052c-.345.22-.668.473-.958.761-.521-.897-1.044-1.795-1.564-2.693 1.178.491 2.353.985 3.524 1.481a3.735 3.735 0 0 0-1 .449zM124.801 33.012c-2.375-1.979-5.63-1.404-7.586.832-1.903 2.313-1.712 5.663.604 7.615 2.34 1.926 5.671 1.438 7.572-.846 1.899-2.303 1.769-5.668-.59-7.601zm-.281 6.614l-.025.027c-1.232 1.292-3.358.096-4.506-.731-1.146-.829-3.11-2.57-1.855-4.104 1.056-1.287 3.124-.231 4.191.482 1.199.803 3.411 2.596 2.275 4.216.074-.09.126-.148-.08.11z"/><path fill="#FFF" d="M124.801 33.012c1.171.959-.253-.211 0 0zM124.492 39.653l.025-.027c.029-.037.057-.073.08-.11-.048.061-.109.137-.105.137zM118.209 42.136c.111.094.272.224-.063-.057-2.835-2.127-6.193-1.504-8.401 1.157-.988 1.189-1.977 2.378-2.961 3.567.351.512.763-.118 1.272.176.437.25 6.244 5.101 6.339 5.366.164.458-.255.548.145.875.172.143 4.536-5.245 4.935-6.191.689-1.755.139-3.678-1.266-4.893zm-1.318 6.754c-.24.296-.044.054-.665.65-.306.293-6.438-4.675-6.191-4.944.835-.918 2.566-1.556 3.576-1.297 2.19.56 5.213 3.26 3.28 5.591z"/></g></symbol><symbol id="youtube" viewBox="0 0 19.979 14.016"><path d="M17.145 0H2.835A2.842 2.842 0 0 0 0 2.835v8.346a2.842 2.842 0 0 0 2.835 2.835h14.31a2.842 2.842 0 0 0 2.835-2.835V2.835A2.844 2.844 0 0 0 17.145 0zM7.036 10.392v-6.77l6.769 3.384-6.769 3.386z"/></symbol></svg>