<?xml version="1.0" encoding="UTF-8" standalone="no"?>
<svg width="50px" height="43px" viewBox="0 0 50 43" version="1.1" xmlns="http://www.w3.org/2000/svg" xmlns:xlink="http://www.w3.org/1999/xlink">
    <!-- Generator: Sketch 43.1 (39012) - http://www.bohemiancoding.com/sketch -->
    <title>Экспресс</title>
    <desc>Created with Sketch.</desc>
    <defs>
        <linearGradient x1="100%" y1="50%" x2="0%" y2="50%" id="linearGradient-1">
            <stop stop-color="#FE9A8B" offset="0%"></stop>
            <stop stop-color="#FD868C" offset="40.8502073%"></stop>
            <stop stop-color="#F9748F" offset="73.1505102%"></stop>
            <stop stop-color="#F78CA0" offset="100%"></stop>
        </linearGradient>
        <path d="M23,1.0093689 C23,0.451909848 23.4438648,0 24,0 C24.5522847,0 25,0.443353176 25,1.0093689 L25,2.9906311 C25,3.54809015 24.5561352,4 24,4 C23.4477153,4 23,3.55664682 23,2.9906311 L23,1.0093689 Z M36.7045369,4.81240347 C37.0322031,4.36140963 37.6569232,4.25670408 38.1068461,4.58359214 C38.5536538,4.90821697 38.6552666,5.53005764 38.3225709,5.98797398 L37.1580142,7.59084877 C36.830348,8.04184262 36.2056279,8.14654817 35.755705,7.81966011 C35.3088973,7.49503528 35.2072845,6.87319461 35.5399802,6.41527827 L36.7045369,4.81240347 Z M45.5563725,15.9444478 C46.0865476,15.7721834 46.6535012,16.0546762 46.8253564,16.5835921 C46.9960218,17.1088461 46.7127195,17.6716523 46.1744065,17.8465608 L44.2901142,18.4588045 C43.7599391,18.6310688 43.1929855,18.3485761 43.0211303,17.8196601 C42.850465,17.2944061 43.1337673,16.7315999 43.6720802,16.5566915 L45.5563725,15.9444478 Z M46.1744065,30.1534392 C46.7045816,30.3257035 46.9972116,30.8874919 46.8253564,31.4164079 C46.654691,31.9416619 46.0946855,32.2304607 45.5563725,32.0555522 L43.6720802,31.4433085 C43.1419051,31.2710442 42.8492751,30.7092559 43.0211303,30.1803399 C43.1917957,29.6550859 43.7518012,29.366287 44.2901142,29.5411955 L46.1744065,30.1534392 Z M2.44362747,32.0555522 C1.91345241,32.2278166 1.34649883,31.9453238 1.17464361,31.4164079 C1.00397824,30.8911539 1.28728054,30.3283477 1.82559348,30.1534392 L3.70988581,29.5411955 C4.24006087,29.3689312 4.80701445,29.6514239 4.97886967,30.1803399 C5.14953505,30.7055939 4.86623274,31.2684001 4.3279198,31.4433085 L2.44362747,32.0555522 Z M1.82559348,17.8465608 C1.29541842,17.6742965 1.00278839,17.1125081 1.17464361,16.5835921 C1.34530898,16.0583381 1.90531453,15.7695393 2.44362747,15.9444478 L4.3279198,16.5566915 C4.85809486,16.7289558 5.1507249,17.2907441 4.97886967,17.8196601 C4.8082043,18.3449141 4.24819875,18.633713 3.70988581,18.4588045 L1.82559348,17.8465608 Z M9.6774291,5.98797398 C9.34976289,5.53698013 9.44323114,4.91048019 9.89315394,4.58359214 C10.3399617,4.2589673 10.9627674,4.35448714 11.2954631,4.81240347 L12.4600198,6.41527827 C12.787686,6.86627211 12.6942178,7.49277206 12.244295,7.81966011 C11.7974872,8.14428494 11.1746815,8.04876511 10.8419858,7.59084877 L9.6774291,5.98797398 Z" id="path-2"></path>
        <rect id="path-3" x="16" y="32" width="16" height="2" rx="1"></rect>
        <path d="M20.0184649,17.4701046 C20.0184649,16.6416775 20.6987505,15.9701046 21.5241452,15.9701046 L34.8283043,15.9701046 C35.6598685,15.9701046 36.9352368,16.2664563 37.6776658,16.6323928 L38.0335735,16.8078164 C38.7756681,17.1735881 38.7752002,17.773652 38.0289839,18.1498836 L37.7504321,18.2903255 C37.0058027,18.6657571 35.7396091,18.9701046 34.9047847,18.9701046 L21.5158415,18.9701046 C20.6888632,18.9701046 20.0184649,18.3043074 20.0184649,17.4701046 L20.0184649,17.4701046 Z" id="path-4"></path>
    </defs>
    <g id="Welcome" stroke="none" stroke-width="1" fill="none" fill-rule="evenodd">
        <g id="Главная" transform="translate(-777.000000, -4214.000000)">
            <g id="Why-choose-us" transform="translate(0.000000, 4065.000000)">
                <g id="Экспресс-печать" transform="translate(778.000000, 150.000000)">
                    <g id="icon-Экспресс-">
                        <g id="Экспресс">
                            <path d="M41.0434458,40.8973673 C45.3437413,36.5601286 48,30.5902655 48,24 C48,10.745166 37.254834,0 24,0 C10.745166,0 0,10.745166 0,24 C0,30.5847846 2.65184227,36.5501982 6.94582832,40.8865425" id="Oval-4" stroke="url(#linearGradient-1)" stroke-width="2"></path>
                            <g id="Rectangle-29">
                                <use fill="url(#linearGradient-1)" fill-rule="evenodd" xlink:href="#path-2"></use>
                                <path stroke="url(#linearGradient-1)" stroke-width="1" d="M23.5,1.0093689 C23.5,0.725373463 23.7226877,0.5 24,0.5 C24.2787003,0.5 24.5,0.722065093 24.5,1.0093689 L24.5,2.9906311 C24.5,3.27462654 24.2773123,3.5 24,3.5 C23.7212997,3.5 23.5,3.27793491 23.5,2.9906311 L23.5,1.0093689 Z M37.1090454,5.1062961 C37.2759737,4.87653897 37.5886031,4.82510056 37.8129534,4.98810063 C38.0384267,5.15191653 38.0869353,5.46164769 37.9180624,5.69408135 L36.7535057,7.29695615 C36.5865774,7.52671328 36.273948,7.57815169 36.0495977,7.41515162 C35.8241244,7.25133571 35.7756158,6.94160455 35.9444887,6.7091709 L37.1090454,5.1062961 L37.1090454,5.1062961 Z M45.710881,16.419976 C45.9809767,16.3322166 46.2641339,16.474361 46.3498281,16.7381006 C46.4359512,17.0031603 46.2931402,17.2822508 46.019898,17.3710325 L44.1356057,17.9832762 C43.86551,18.0710356 43.5823528,17.9288913 43.4966586,17.6651516 C43.4105355,17.4000919 43.5533465,17.1210015 43.8265887,17.0322197 L45.710881,16.419976 L45.710881,16.419976 Z M46.019898,30.6289675 C46.2899937,30.7167269 46.4355223,30.9981597 46.3498281,31.2618994 C46.263705,31.5269591 45.9841232,31.6688057 45.710881,31.580024 L43.8265887,30.9677803 C43.556493,30.8800209 43.4109644,30.598588 43.4966586,30.3348484 C43.5827817,30.0697887 43.8623635,29.927942 44.1356057,30.0167238 L46.019898,30.6289675 Z M2.28911897,31.580024 C2.01902326,31.6677834 1.73586608,31.525639 1.65017187,31.2618994 C1.56404875,30.9968397 1.70685982,30.7177492 1.98010198,30.6289675 L3.86439431,30.0167238 C4.13449002,29.9289644 4.41764721,30.0711087 4.50334142,30.3348484 C4.58946453,30.5999081 4.44665346,30.8789985 4.1734113,30.9677803 L2.28911897,31.580024 L2.28911897,31.580024 Z M1.98010198,17.3710325 C1.71000627,17.2832731 1.56447766,17.0018403 1.65017187,16.7381006 C1.73629498,16.4730409 2.01587682,16.3311943 2.28911897,16.419976 L4.1734113,17.0322197 C4.44350701,17.1199791 4.58903563,17.401412 4.50334142,17.6651516 C4.4172183,17.9302113 4.13763646,18.072058 3.86439431,17.9832762 L1.98010198,17.3710325 L1.98010198,17.3710325 Z M10.0819376,5.69408135 C9.91500927,5.46432422 9.96269621,5.15110071 10.1870466,4.98810063 C10.4125198,4.82428473 10.7220817,4.87386244 10.8909546,5.1062961 L12.0555113,6.7091709 C12.2224396,6.93892803 12.1747527,7.25215154 11.9504023,7.41515162 C11.7249291,7.57896752 11.4153672,7.52938981 11.2464943,7.29695615 L10.0819376,5.69408135 Z"></path>
                            </g>
                            <g id="Rectangle-30">
                                <use fill="url(#linearGradient-1)" fill-rule="evenodd" xlink:href="#path-3"></use>
                                <rect stroke="url(#linearGradient-1)" stroke-width="1" x="16.5" y="32.5" width="15" height="1" rx="0.5"></rect>
                            </g>
                            <g id="Rectangle-31" transform="translate(29.303931, 17.470105) rotate(-55.000000) translate(-29.303931, -17.470105) ">
                                <use fill="url(#linearGradient-1)" fill-rule="evenodd" xlink:href="#path-4"></use>
                                <path stroke="url(#linearGradient-1)" stroke-width="2" d="M37.1261694,17.4783009 C36.4973701,17.7492634 35.5197949,17.9701046 34.9047847,17.9701046 L21.5158415,17.9701046 C21.2389472,17.9701046 21.0184649,17.7498234 21.0184649,17.4701046 C21.0184649,17.1975631 21.247431,16.9701046 21.5241452,16.9701046 L34.8283043,16.9701046 C35.4678263,16.9701046 36.5030201,17.2021408 37.1261694,17.4783009 Z"></path>
                            </g>
                            <circle id="Oval-5" stroke="url(#linearGradient-1)" stroke-width="2" fill="url(#linearGradient-1)" fill-rule="evenodd" cx="24" cy="25" r="2"></circle>
                        </g>
                    </g>
                </g>
            </g>
        </g>
    </g>
</svg>